General
Format version                   : Version 2
File size                        : 1.01 GiB
Duration                         : 1h 22mn
Overall bit rate                 : 1 759 Kbps
Movie name                       : CARLOS_MENCIA.Title61.DVDRip
Encoded date                     : UTC 2012-09-02 03:36:20
Writing application              : DVDFab
Writing library                  : libebml v0.7.8 + libmatroska v0.8.1
.
Video
ID                               : 1
Format                           : AVC
Format/Info                      : Advanced Video Codec
Format profile                   : Main@L3.0
Format settings, CABAC           : Yes
Format settings, ReFrames        : 2 frames
Codec ID                         : V_MPEG4/ISO/AVC
Duration                         : 1h 22mn
Bit rate                         : 1 276 Kbps
Width                            : 720 pixels
Height                           : 404 pixels
Display aspect ratio             : 16:9
Frame rate                       : 29.970 fps
Color space                      : YUV
Chroma subsampling               : 4:2:0
Bit depth                        : 8 bits
Scan type                        : Progressive
Bits/(Pixel*Frame)               : 0.146
Stream size                      : 751 MiB (73%)
Writing library                  : x264 core
Color primaries                  : BT.601-6 525, BT.1358 525, BT.1700 NTSC, SMPTE 170M
Transfer characteristics         : BT.709-5, BT.1361
Matrix coefficients              : BT.601-6 525, BT.1358 525, BT.1700 NTSC, SMPTE 170M
.
Audio
ID                               : 2
Format                           : AC-3
Format/Info                      : Audio Coding 3
Mode extension                   : CM (complete main)
Codec ID                         : A_AC3
Duration                         : 1h 22mn
Bit rate mode                    : Constant
Bit rate                         : 448 Kbps
Channel(s)                       : 6 channels
Channel positions                : Front: L C R, Side: L R, LFE
Sampling rate                    : 48.0 KHz
Bit depth                        : 16 bits
Compression mode                 : Lossy
Stream size                      : 264 MiB (25%)
.
Carlos Mencia
.
Mencia is back and at the top of his game. As outspoken as ever, he brings fans into bold new comedic territory, using personal stories and an uncompromising world view to connect with his universal and diverse fan base. Filmed at the Pechanga Casino in Temecula, CA, Mencia's latest hour special puts him in a new light while still showcasing the trademark "keep it real" attitude his fans have always loved. 
.
Seed or a kitten dies